<svg xmlns="http://www.w3.org/2000/svg" viewBox="0 0 268 65"><defs><style>.a{fill:#b42253;}.b{fill:#3b3b3b;}</style></defs><title>Artboard 1</title><rect class="a" y="33" width="62" height="9"/><rect class="a" x="11" y="22" width="62" height="9"/><rect class="a" x="22" y="11" width="62" height="9"/><rect class="a" x="33" width="62" height="9"/><path class="b" d="M105.77,32.36a10.14,10.14,0,0,1-1,4.54,7.13,7.13,0,0,1-2.78,3A7.9,7.9,0,0,1,97.91,41a8,8,0,0,1-4.09-1A7.09,7.09,0,0,1,91.05,37a9.71,9.71,0,0,1-1-4.39v-1a10.08,10.08,0,0,1,1-4.54,7.09,7.09,0,0,1,2.79-3A8,8,0,0,1,97.88,23,7.87,7.87,0,0,1,102,24.06a7.26,7.26,0,0,1,2.79,3,10,10,0,0,1,1,4.48Zm-4.42-.73a7.2,7.2,0,0,0-.9-4,2.9,2.9,0,0,0-2.57-1.35q-3.27,0-3.45,4.76v1.29a7.36,7.36,0,0,0,.88,4,2.88,2.88,0,0,0,2.61,1.38,2.84,2.84,0,0,0,2.53-1.36,7.15,7.15,0,0,0,.91-3.91Z"/><path class="b" d="M123,41h-4.3V33.48h-6.37V41H108V23h4.33v7.15h6.37V23H123Z"/><path class="b" d="M141.18,23V41h-4.34V26.35h-4.05l-.29,6a18.46,18.46,0,0,1-.87,5,5.45,5.45,0,0,1-1.94,2.73,6.12,6.12,0,0,1-3.42.88h-1.16V37.66l.6-.06A2.34,2.34,0,0,0,127.6,36a16.13,16.13,0,0,0,.75-4.73l.31-8.28Z"/><path class="b" d="M154.35,37.64H148.4l-1,3.36h-4.64l6.61-18h4.08l6.66,18H155.4Zm-4.91-3.35h3.87L151.37,28Z"/><path class="b" d="M172,23h4.34V41H172V29.65L165.48,41h-4.35V23h4.35V34.36Zm1.37-5a3.69,3.69,0,0,1-1.25,2.89,5.55,5.55,0,0,1-6.66,0A3.69,3.69,0,0,1,164.16,18H167a1.59,1.59,0,0,0,.46,1.22,2.13,2.13,0,0,0,2.55,0,1.6,1.6,0,0,0,.45-1.23Z"/><path class="b" d="M194,41h-4.3V33.48h-6.37V41H179V23h4.33v7.15h6.37V23H194Z"/><path class="b" d="M98.25,54.7h0l3-7.71h4.55l-6,14.08a7.46,7.46,0,0,1-2.18,3,5,5,0,0,1-2.84.92h-.87l-.66,0-.08-3.32a4.33,4.33,0,0,0,.86.05,2.59,2.59,0,0,0,1.48-.34,2.34,2.34,0,0,0,.81-1.29l.21-.59L90,47h4.59Z"/><path class="b" d="M123,65h-4.3V57.48h-6.37V65H108V47h4.33v7.15h6.37V47H123Z"/><path class="b" d="M136.43,47h4.31V65h-4.31V53.65L130,65h-4.32V47H130V58.36Z"/><path class="b" d="M143.38,65V47h6.43a9,9,0,0,1,5.25,1.27,4.23,4.23,0,0,1,1.81,3.7,4.37,4.37,0,0,1-.64,2.39,3.74,3.74,0,0,1-1.88,1.45,3.78,3.78,0,0,1,2.15,1.39,4,4,0,0,1,.75,2.47,4.79,4.79,0,0,1-1.67,4A8,8,0,0,1,150.64,65Zm4.31-10.5h2.25a3.12,3.12,0,0,0,2-.52,1.86,1.86,0,0,0,.6-1.5,2,2,0,0,0-.65-1.64,3.44,3.44,0,0,0-2.1-.5h-2.12Zm0,2.85v4.31h2.83a2.69,2.69,0,0,0,1.8-.54,1.89,1.89,0,0,0,.62-1.51,2,2,0,0,0-2.22-2.26Z"/><path class="b" d="M170.73,57.36h-6.79v4.3h8V65H159.62V47H172v3.35h-8v3.8h6.79Z"/><path class="b" d="M178,58.89V65h-4.32V47h7.15a8.21,8.21,0,0,1,3.63.76,5.74,5.74,0,0,1,2.45,2.16,5.94,5.94,0,0,1,.87,3.19,5.23,5.23,0,0,1-1.88,4.21,7.74,7.74,0,0,1-5.14,1.57Zm0-3.35h2.83a2.65,2.65,0,0,0,1.91-.63,2.34,2.34,0,0,0,.66-1.78,2.89,2.89,0,0,0-.68-2,2.36,2.36,0,0,0-1.84-.77H178Z"/><path class="b" d="M204.59,58.83a6.17,6.17,0,0,1-1,3.23A6,6,0,0,1,201,64.23a9,9,0,0,1-3.81.77,7.11,7.11,0,0,1-5.56-2.25,9.16,9.16,0,0,1-2-6.35v-.86a10.43,10.43,0,0,1,.92-4.51,6.84,6.84,0,0,1,2.64-3,7.46,7.46,0,0,1,4-1,7.83,7.83,0,0,1,5.24,1.68,6.57,6.57,0,0,1,2.25,4.62h-4.3a3.12,3.12,0,0,0-.83-2.3,3.45,3.45,0,0,0-2.36-.69,2.6,2.6,0,0,0-2.36,1.17,7.54,7.54,0,0,0-.79,3.77v1.24a8.21,8.21,0,0,0,.72,4,2.66,2.66,0,0,0,2.48,1.2,3.43,3.43,0,0,0,2.28-.68,2.88,2.88,0,0,0,.83-2.18Z"/><path class="b" d="M217.14,47h4.31V65h-4.31V53.65L210.71,65h-4.32V47h4.32V58.36Z"/><path class="b" d="M237.78,50.35h-5.37V65h-4.32V50.35h-5.27V47h15Z"/><path class="b" d="M250.71,57.36h-6.79v4.3h8V65H239.6V47H252v3.35h-8v3.8h6.79Z"/><path class="b" d="M268,50.35h-5.37V65h-4.32V50.35H253V47h15Z"/></svg>